<svg width="793" height="88" viewBox="0 0 793 88" fill="none" xmlns="http://www.w3.org/2000/svg">
<path d="M613.25 13.62L624.77 25.16L602.18 47.71L624.73 70.3L613.19 81.82L590.64 59.23L568.05 81.78L556.53 70.24L579.12 47.69L556.57 25.1L568.11 13.58L590.66 36.17L613.25 13.62Z" stroke="black" stroke-width="2" stroke-miterlimit="10"/>
<path d="M691.91 13.7L703.43 25.24L677.09 51.53L677.06 81.88L660.7 81.86L660.73 51.51L634.44 25.17L645.98 13.65L668.92 36.74L691.91 13.7Z" stroke="black" stroke-width="2" stroke-miterlimit="10"/>
<path d="M790.22 15.87L746.11 65.11L785.59 65.15L785.57 82.22L707.55 82.14L751.66 32.9L714.18 32.86L714.2 15.79L790.22 15.87Z" stroke="black" stroke-width="2" stroke-miterlimit="10"/>
<path d="M28.9 71.89C29.93 71.89 30.1 71.89 31.04 71.89L31.03 86.11C30.09 86.11 29.92 86.11 28.89 86.11C13.9 86.1 1.83 74.01 1.85 59.02L1.86 51.82C1.87 36.83 13.96 24.7601 28.95 24.7801C43.94 24.7901 56.09 36.88 56.08 51.87C56.08 52.81 56.07 61.21 56.07 61.21L16.32 61.17C17.34 67.26 22.74 71.89 28.9 71.89ZM29.02 39C23.79 38.99 19.08 42.25 17.19 46.87L40.75 46.89C38.7 42.35 34.33 39.01 29.02 39Z" stroke="black" stroke-width="2" stroke-miterlimit="10"/>
<path d="M99.43 39.17C92.15 39.16 86.58 43.75 86.57 49.69L86.56 63.33C86.55 76.31 73.95 86.15 59.38 86.14C58.44 86.14 58.18 86.14 57.24 86.14L57.25 73.83C58.19 73.83 58.45 73.83 59.39 73.83C66.67 73.84 72.24 69.25 72.25 63.31L72.26 49.67C72.27 36.69 84.87 26.85 99.44 26.86C100.38 26.86 100.64 26.86 101.58 26.86L101.57 39.17C100.63 39.18 100.38 39.18 99.43 39.17Z" stroke="black" stroke-width="2" stroke-miterlimit="10"/>
<path d="M113.97 9.09998L128.27 9.10999L128.25 27.01L143.24 27.02L143.23 39.1L128.24 39.09L128.22 60.49C128.21 67.34 133.78 72.01 141.06 72.02C142 72.02 142.26 72.02 143.2 72.02L143.19 86.24C142.25 86.24 141.99 86.24 141.05 86.24C126.49 86.23 113.91 75.47 113.92 60.48L113.94 39.08L106.83 39.07L106.84 26.99L113.95 27L113.97 9.09998Z" stroke="black" stroke-width="2" stroke-miterlimit="10"/>
<path d="M160.92 85.71L148.51 78.07L183.34 24.43L218.06 78.14L205.63 85.75L201.1 78.38L165.47 78.34L160.92 85.71ZM183.31 49.33L174.22 64.05L192.38 64.07L183.31 49.33Z" stroke="black" stroke-width="2" stroke-miterlimit="10"/>
<path d="M219.33 9.21002L233.63 9.21997L233.61 27.12L248.6 27.13L248.59 38.73L233.6 38.72L233.58 60.39C233.57 67.24 239.14 72.12 246.42 72.13C247.36 72.13 247.62 72.13 248.56 72.13L248.55 86.35C247.61 86.35 247.35 86.35 246.41 86.35C231.85 86.34 219.27 75.37 219.28 60.38L219.3 38.71L212.19 38.7L212.2 27.1L219.31 27.11L219.33 9.21002Z" stroke="black" stroke-width="2" stroke-miterlimit="10"/>
<path d="M271.93 2.17999L279.55 9.67999L266.52 22.77L258.9 15.27L271.93 2.17999ZM273.56 86.38L259.26 86.37L259.32 27.16L273.62 27.17L273.56 86.38Z" stroke="black" stroke-width="2" stroke-miterlimit="10"/>
<path d="M326.39 38.82C319.11 38.81 313.7 43.98 313.69 49.91L313.68 63.55C313.67 76.53 301.07 86.37 286.5 86.36C285.56 86.36 285.3 86.36 284.36 86.36L284.37 74.05C285.31 74.05 285.57 74.05 286.51 74.05C293.79 74.06 299.36 69.47 299.37 63.53L299.38 49.89C299.39 36.91 311.99 27.07 326.56 27.08C327.5 27.08 327.76 27.08 328.7 27.08L328.69 38.81C327.75 38.82 327.33 38.82 326.39 38.82Z" stroke="black" stroke-width="2" stroke-miterlimit="10"/>
<path d="M339.73 9.33002L354.03 9.34003L354.01 27.24L369 27.25L368.99 38.85L354 38.84L353.98 60.23C353.97 67.08 359.54 72.24 366.82 72.24C367.76 72.24 368.02 72.24 368.96 72.24L368.95 86.46C368.01 86.46 367.75 86.46 366.81 86.46C352.25 86.45 339.67 75.2 339.68 60.21L339.7 38.82L332.59 38.81L332.6 27.21L339.71 27.22L339.73 9.33002Z" stroke="black" stroke-width="2" stroke-miterlimit="10"/>
<path d="M395.49 14.43C395.49 19.14 391.63 22.99 386.92 22.99C382.21 22.99 378.27 19.13 378.28 14.42C378.28 9.70998 382.23 5.85999 386.94 5.85999C391.65 5.85999 395.5 9.71999 395.49 14.43ZM393.97 86.5L379.67 86.49L379.73 27.28L394.03 27.29L393.97 86.5Z" stroke="black" stroke-width="2" stroke-miterlimit="10"/>
<path d="M435.68 41.33C427.65 41.32 421.27 47.79 421.26 55.82C421.25 63.85 427.63 70.23 435.65 70.24C439.61 70.24 443 68.8 446.1 65.9L457.21 77.61C451.98 82.83 444.05 86.4 435.64 86.39C418.72 86.37 405.1 72.63 405.12 55.71C405.14 38.79 418.78 25.17 435.7 25.19C444.11 25.2 451.07 28.3 457.25 34.01L446.12 45.7C442.93 42.79 439.64 41.33 435.68 41.33Z" stroke="black" stroke-width="2" stroke-miterlimit="10"/>
<path d="M473.73 86.42L461.32 78.78L496.15 24.73L530.87 78.85L518.44 86.46L513.91 79.09L478.28 79.05L473.73 86.42ZM496.12 50.04L487.03 64.76L505.19 64.78L496.12 50.04Z" stroke="black" stroke-width="2" stroke-miterlimit="10"/>
</svg>
