<svg width="529" height="180" viewBox="0 0 529 180" fill="none" xmlns="http://www.w3.org/2000/svg">
<path d="M59.46 109.88L70.91 121.35L48.46 143.76L70.87 166.21L59.4 177.66L36.99 155.21L14.54 177.62L3.09 166.15L25.54 143.74L3.13 121.29L14.6 109.84L37.01 132.29L59.46 109.88Z" stroke="black" stroke-width="2" stroke-miterlimit="10"/>
<path d="M137.62 109.96L149.07 121.43L122.89 147.55L122.86 177.71L106.6 177.69L106.63 147.53L80.51 121.35L91.98 109.9L114.78 132.84L137.62 109.96Z" stroke="black" stroke-width="2" stroke-miterlimit="10"/>
<path d="M235.31 112.11L191.48 161.04L230.71 161.08L230.69 178.04L153.16 177.96L197 129.04L159.75 129L159.77 112.04L235.31 112.11Z" stroke="black" stroke-width="2" stroke-miterlimit="10"/>
<path d="M27.99 71.07C29.01 71.07 29.18 71.07 30.12 71.07L30.11 85.2C29.17 85.2 29 85.2 27.98 85.2C13.09 85.19 1.09999 73.17 1.10999 58.28L1.11999 51.13C1.12999 36.24 13.15 24.25 28.04 24.26C42.93 24.27 55.01 36.29 54.99 51.18C54.99 52.12 54.98 60.46 54.98 60.46L15.49 60.42C16.5 66.47 21.86 71.07 27.99 71.07ZM28.11 38.39C22.92 38.38 18.23 41.61 16.36 46.21L39.77 46.23C37.72 41.72 33.38 38.39 28.11 38.39Z" stroke="black" stroke-width="2"/>
<path d="M98.07 38.56C90.84 38.55 85.3 43.12 85.29 49.01L85.28 62.57C85.27 75.46 72.75 85.25 58.28 85.23C57.34 85.23 57.09 85.23 56.15 85.23L56.16 73C57.1 73 57.35 73 58.29 73C65.52 73.01 71.06 68.44 71.07 62.55L71.08 48.99C71.09 36.1 83.61 26.31 98.08 26.33C99.02 26.33 99.27 26.33 100.21 26.33L100.2 38.56C99.26 38.56 99.01 38.56 98.07 38.56Z" stroke="black" stroke-width="2"/>
<path d="M112.51 8.67999L126.72 8.69L126.7 26.48L141.59 26.49L141.58 38.49L126.69 38.48L126.67 59.74C126.66 66.55 132.19 71.19 139.43 71.2C140.37 71.2 140.62 71.2 141.56 71.2L141.55 85.33C140.61 85.33 140.36 85.33 139.42 85.33C124.95 85.32 112.45 74.63 112.46 59.73L112.48 38.47L105.42 38.46L105.43 26.46L112.49 26.47L112.51 8.67999Z" stroke="black" stroke-width="2"/>
<path d="M159.16 84.8L146.83 77.21L181.44 23.91L215.94 77.28L203.59 84.84L199.09 77.52L163.68 77.49L159.16 84.8ZM181.41 48.65L172.37 63.28L190.41 63.3L181.41 48.65Z" stroke="black" stroke-width="2"/>
<path d="M217.2 8.79001L231.41 8.79999L231.39 26.59L246.28 26.6L246.27 38.13L231.38 38.12L231.36 59.65C231.35 66.46 236.88 71.31 244.12 71.31C245.06 71.31 245.31 71.31 246.25 71.31L246.24 85.44C245.3 85.44 245.05 85.44 244.11 85.44C229.64 85.43 217.14 74.53 217.15 59.63L217.17 38.1L210.11 38.09L210.12 26.56L217.18 26.57L217.2 8.79001Z" stroke="black" stroke-width="2"/>
<path d="M269.47 1.79999L277.04 9.25L264.09 22.26L256.52 14.81L269.47 1.79999ZM271.09 85.46L256.88 85.45L256.94 26.61L271.15 26.62L271.09 85.46Z" stroke="black" stroke-width="2"/>
<path d="M323.58 38.21C316.35 38.2 310.97 43.34 310.96 49.23L310.95 62.79C310.94 75.68 298.42 85.47 283.95 85.45C283.01 85.45 282.76 85.45 281.82 85.45L281.83 73.22C282.77 73.22 283.02 73.22 283.96 73.22C291.19 73.23 296.73 68.66 296.74 62.77L296.75 49.21C296.76 36.32 309.28 26.53 323.75 26.55C324.69 26.55 324.94 26.55 325.88 26.55L325.87 38.21C324.93 38.21 324.52 38.21 323.58 38.21Z" stroke="black" stroke-width="2"/>
<path d="M336.84 8.89999L351.05 8.91L351.03 26.7L365.92 26.71L365.91 38.24L351.02 38.23L351 59.48C350.99 66.29 356.52 71.41 363.76 71.42C364.7 71.42 364.95 71.42 365.89 71.42L365.88 85.55C364.94 85.55 364.69 85.55 363.75 85.55C349.28 85.54 336.78 74.37 336.79 59.47L336.81 38.22L329.75 38.21L329.76 26.68L336.82 26.69L336.84 8.89999Z" stroke="black" stroke-width="2"/>
<path d="M392.25 13.98C392.25 18.66 388.41 22.49 383.73 22.48C379.05 22.47 375.14 18.64 375.14 13.96C375.14 9.27998 379.06 5.44998 383.74 5.45998C388.42 5.45998 392.25 9.3 392.25 13.98ZM390.73 85.58L376.52 85.57L376.58 26.73L390.79 26.74L390.73 85.58Z" stroke="black" stroke-width="2"/>
<path d="M432.17 40.7C424.2 40.69 417.85 47.12 417.84 55.1C417.83 63.07 424.17 69.42 432.14 69.43C436.08 69.43 439.44 68 442.52 65.12L453.56 76.76C448.37 81.94 440.49 85.49 432.13 85.48C415.32 85.46 401.78 71.81 401.8 55C401.82 38.19 415.38 24.65 432.19 24.67C440.55 24.68 447.46 27.76 453.61 33.43L442.55 45.04C439.38 42.15 436.11 40.71 432.17 40.7Z" stroke="black" stroke-width="2"/>
<path d="M469.99 85.51L457.66 77.92L492.27 24.22L526.77 77.99L514.42 85.55L509.92 78.23L474.51 78.2L469.99 85.51ZM492.24 49.36L483.2 63.99L501.24 64.01L492.24 49.36Z" stroke="black" stroke-width="2"/>
</svg>
