<svg width="504" height="193" viewBox="0 0 504 193" fill="none" xmlns="http://www.w3.org/2000/svg">
<path d="M182.77 111.71L196.22 125.19L169.84 151.52L196.17 177.9L182.69 191.35L156.36 164.97L129.98 191.3L116.53 177.82L142.91 151.49L116.58 125.11L130.06 111.66L156.39 138.04L182.77 111.71Z" stroke="black" stroke-width="2" stroke-miterlimit="10"/>
<path d="M274.6 111.8L288.05 125.28L257.3 155.97L257.27 191.41L238.17 191.39L238.2 155.95L207.5 125.2L220.98 111.75L247.76 138.7L274.6 111.8Z" stroke="black" stroke-width="2" stroke-miterlimit="10"/>
<path d="M389.37 114.33L337.87 171.81L383.96 171.86L383.94 191.79L292.85 191.7L344.35 134.22L300.59 134.18L300.61 114.25L389.37 114.33Z" stroke="black" stroke-width="2" stroke-miterlimit="10"/>
<path d="M27.19 68.03C28.16 68.03 28.33 68.03 29.22 68.03L29.21 81.49C28.32 81.49 28.16 81.49 27.18 81.49C12.99 81.48 1.56 70.03 1.58 55.84L1.58999 49.03C1.59999 34.84 13.05 23.41 27.24 23.43C41.43 23.45 52.94 34.89 52.92 49.08C52.92 49.97 52.91 57.92 52.91 57.92L15.28 57.88C16.25 63.64 21.35 68.03 27.19 68.03ZM27.3 36.89C22.35 36.89 17.89 39.96 16.1 44.34L38.4 44.36C36.46 40.06 32.33 36.9 27.3 36.89Z" stroke="black" stroke-width="2"/>
<path d="M93.96 37.06C87.07 37.05 81.79 41.4 81.79 47.02L81.78 59.94C81.77 72.22 69.84 81.55 56.05 81.53C55.16 81.53 54.91 81.53 54.02 81.53L54.03 69.88C54.92 69.88 55.17 69.88 56.06 69.88C62.95 69.89 68.23 65.54 68.23 59.92L68.24 47C68.25 34.72 80.18 25.39 93.97 25.4C94.86 25.4 95.11 25.4 96 25.4L95.99 37.05C95.1 37.06 94.86 37.06 93.96 37.06Z" stroke="black" stroke-width="2"/>
<path d="M107.72 8.59L121.26 8.60001L121.24 25.55L135.43 25.56V37L121.24 36.99L121.22 57.25C121.21 63.74 126.48 68.16 133.37 68.17C134.26 68.17 134.51 68.17 135.4 68.17L135.39 81.63C134.5 81.63 134.25 81.63 133.36 81.63C119.57 81.62 107.66 71.43 107.68 57.24L107.7 36.98L100.97 36.97L100.98 25.54L107.71 25.55L107.72 8.59Z" stroke="black" stroke-width="2"/>
<path d="M152.17 81.11L140.42 73.88L173.39 23.09L206.27 73.94L194.5 81.15L190.21 74.17L156.47 74.14L152.17 81.11ZM173.37 46.67L164.76 60.61L181.95 60.63L173.37 46.67Z" stroke="black" stroke-width="2"/>
<path d="M207.47 8.67999L221.01 8.69L221 25.65L235.19 25.66L235.18 36.65L220.99 36.64L220.97 57.15C220.96 63.64 226.23 68.26 233.12 68.26C234.01 68.26 234.26 68.26 235.15 68.26L235.14 81.72C234.25 81.72 234 81.72 233.11 81.72C219.32 81.71 207.41 71.32 207.43 57.13L207.45 36.62L200.72 36.61L200.73 25.62L207.46 25.63L207.47 8.67999Z" stroke="black" stroke-width="2"/>
<path d="M257.27 2.03L264.48 9.13L252.14 21.53L244.93 14.43L257.27 2.03ZM258.82 81.74L245.28 81.73L245.34 25.67L258.88 25.68L258.82 81.74Z" stroke="black" stroke-width="2"/>
<path d="M308.83 36.72C301.94 36.71 296.82 41.61 296.81 47.22L296.8 60.14C296.79 72.42 284.86 81.75 271.07 81.73C270.18 81.73 269.93 81.73 269.04 81.73L269.05 70.08C269.94 70.08 270.19 70.08 271.08 70.08C277.97 70.09 283.25 65.74 283.25 60.12L283.26 47.2C283.27 34.92 295.2 25.59 308.99 25.6C309.88 25.6 310.13 25.6 311.02 25.6L311.01 36.71C310.12 36.72 309.72 36.72 308.83 36.72Z" stroke="black" stroke-width="2"/>
<path d="M321.47 8.79999L335.01 8.81L334.99 25.76L349.18 25.77L349.17 36.76L334.98 36.75L334.96 57C334.95 63.49 340.22 68.37 347.11 68.37C348 68.37 348.25 68.37 349.14 68.37L349.13 81.83C348.24 81.83 347.99 81.83 347.1 81.83C333.31 81.82 321.4 71.17 321.42 56.98L321.44 36.73L314.71 36.72L314.72 25.73L321.45 25.74L321.47 8.79999Z" stroke="black" stroke-width="2"/>
<path d="M374.26 13.63C374.26 18.09 370.6 21.74 366.14 21.73C361.68 21.73 357.95 18.07 357.96 13.61C357.96 9.14997 361.7 5.5 366.16 5.51C370.62 5.52 374.26 9.16999 374.26 13.63ZM372.81 81.86L359.27 81.85L359.33 25.79L372.87 25.8L372.81 81.86Z" stroke="black" stroke-width="2"/>
<path d="M412.3 39.1C404.7 39.09 398.65 45.22 398.65 52.82C398.64 60.42 404.68 66.47 412.28 66.47C416.03 66.47 419.24 65.1 422.17 62.36L432.69 73.45C427.74 78.39 420.23 81.77 412.27 81.76C396.25 81.74 383.36 68.73 383.37 52.71C383.39 36.69 396.31 23.8 412.32 23.81C420.28 23.82 426.87 26.75 432.72 32.16L422.18 43.23C419.16 40.47 416.05 39.1 412.3 39.1Z" stroke="black" stroke-width="2"/>
<path d="M448.33 81.79L436.58 74.56L469.56 23.39L502.43 74.62L490.66 81.83L486.37 74.85L452.63 74.82L448.33 81.79ZM469.53 47.34L460.92 61.28L478.11 61.3L469.53 47.34Z" stroke="black" stroke-width="2"/>
</svg>
