<svg width="588" height="480" viewBox="0 0 588 480" fill="none" xmlns="http://www.w3.org/2000/svg">
<path d="M332.5 333.49L548.23 472.63C552.82 475.59 558.97 473.21 560.37 467.93L586.22 370.38C587.71 364.75 584.4 358.98 578.79 357.42L390.18 305.04C370.46 299.56 349.36 306.11 336.2 321.77L331.57 327.28C329.95 329.22 330.39 332.13 332.5 333.49Z" stroke="black" stroke-width="2" stroke-miterlimit="10"/>
<path d="M482.95 2.57001H576.72L270.5 356.15L210.16 428C183.21 460.1 143.44 478.63 101.52 478.63H2.64999L308.87 125.05L372.32 52.69C400.26 20.84 440.58 2.57001 482.95 2.57001Z" stroke="black" stroke-width="2" stroke-miterlimit="10"/>
<path d="M260.47 127.84L121.81 4.66001C116.87 0.270008 109.37 0.500003 104.7 5.17L33.15 76.72C29.75 80.12 30.96 85.89 35.45 87.64L198.05 150.87C220.18 159.48 245.33 153.3 260.95 135.42C262.9 133.19 262.68 129.81 260.47 127.84Z" stroke="black" stroke-width="2" stroke-miterlimit="10"/>
</svg>
