<svg width="742" height="175" viewBox="0 0 742 175" fill="none" xmlns="http://www.w3.org/2000/svg">
<path d="M292.81 108.447L303.78 119.437L282.27 140.907L303.74 162.417L292.75 173.387L271.28 151.877L249.77 173.347L238.8 162.357L260.31 140.887L238.84 119.377L249.83 108.407L271.3 129.917L292.81 108.447Z" stroke="#061922" stroke-miterlimit="10"/>
<path d="M367.7 108.527L378.67 119.517L353.59 144.547L353.56 173.447L337.98 173.427L338.01 144.527L312.98 119.447L323.97 108.477L345.81 130.457L367.7 108.527Z" stroke="#061922" stroke-miterlimit="10"/>
<path d="M461.31 110.587L419.31 157.467L456.9 157.507L456.88 173.757L382.59 173.687L424.59 126.807L388.9 126.767L388.92 110.517L461.31 110.587Z" stroke="#061922" stroke-miterlimit="10"/>
<path d="M262.65 71.257C263.63 71.257 263.79 71.257 264.69 71.257L264.68 84.797C263.78 84.797 263.62 84.797 262.64 84.797C248.37 84.787 236.88 73.277 236.89 58.997L236.9 52.147C236.91 37.877 248.42 26.387 262.7 26.397C276.98 26.407 288.54 37.917 288.53 52.197C288.53 53.097 288.52 61.087 288.52 61.087L250.68 61.047C251.64 66.847 256.78 71.257 262.65 71.257ZM262.76 39.947C257.79 39.947 253.3 43.037 251.5 47.437L273.93 47.457C271.97 43.137 267.82 39.947 262.76 39.947Z" stroke="#061922" stroke-miterlimit="10"/>
<path d="M329.8 40.107C322.87 40.097 317.56 44.467 317.56 50.117L317.55 63.107C317.54 75.457 305.54 84.837 291.68 84.827C290.78 84.827 290.54 84.827 289.64 84.827L289.65 73.107C290.55 73.107 290.79 73.107 291.69 73.107C298.62 73.117 303.93 68.747 303.93 63.097L303.94 50.107C303.95 37.757 315.95 28.377 329.81 28.387C330.71 28.387 330.95 28.387 331.85 28.387L331.84 40.107C330.94 40.107 330.7 40.107 329.8 40.107Z" stroke="#061922" stroke-miterlimit="10"/>
<path d="M343.64 11.477L357.26 11.487L357.24 28.537L371.51 28.547L371.5 40.047L357.23 40.037L357.21 60.407C357.2 66.927 362.5 71.377 369.43 71.387C370.33 71.387 370.57 71.387 371.47 71.387L371.46 84.927C370.56 84.927 370.32 84.927 369.42 84.927C355.56 84.917 343.58 74.667 343.59 60.397L343.61 40.027L336.84 40.017L336.85 28.517L343.62 28.527L343.64 11.477Z" stroke="#061922" stroke-miterlimit="10"/>
<path d="M388.34 84.417L376.52 77.147L409.68 26.077L442.74 77.2169L430.91 84.4669L426.59 77.447L392.66 77.417L388.34 84.417ZM409.66 49.777L401 63.797L418.29 63.817L409.66 49.777Z" stroke="#061922" stroke-miterlimit="10"/>
<path d="M443.95 11.577L457.57 11.587L457.55 28.637L471.82 28.647L471.81 39.697L457.54 39.687L457.52 60.317C457.51 66.837 462.81 71.487 469.74 71.487C470.64 71.487 470.88 71.487 471.78 71.487L471.77 85.027C470.87 85.027 470.63 85.027 469.73 85.027C455.87 85.017 443.89 74.577 443.9 60.297L443.92 39.667L437.15 39.657L437.16 28.607L443.93 28.617L443.95 11.577Z" stroke="#061922" stroke-miterlimit="10"/>
<path d="M494.03 4.88696L501.28 12.027L488.87 24.4969L481.62 17.357L494.03 4.88696ZM495.59 85.047L481.97 85.037L482.03 28.657L495.65 28.667L495.59 85.047Z" stroke="#061922" stroke-miterlimit="10"/>
<path d="M545.88 39.767C538.95 39.757 533.8 44.687 533.79 50.327L533.78 63.317C533.77 75.667 521.77 85.047 507.91 85.037C507.01 85.037 506.77 85.037 505.87 85.037L505.88 73.317C506.78 73.317 507.02 73.317 507.92 73.317C514.85 73.327 520.16 68.957 520.16 63.307L520.17 50.317C520.18 37.967 532.18 28.587 546.04 28.597C546.94 28.597 547.18 28.597 548.08 28.597L548.07 39.767C547.18 39.777 546.78 39.777 545.88 39.767Z" stroke="#061922" stroke-miterlimit="10"/>
<path d="M558.59 11.687L572.21 11.697L572.19 28.7469L586.46 28.757L586.45 39.807L572.18 39.797L572.16 60.167C572.15 66.687 577.45 71.597 584.38 71.607C585.28 71.607 585.52 71.607 586.42 71.607L586.41 85.137C585.51 85.137 585.27 85.137 584.37 85.137C570.51 85.127 558.53 74.417 558.54 60.147L558.56 39.777L551.79 39.767L551.8 28.7169L558.57 28.727L558.59 11.687Z" stroke="#061922" stroke-miterlimit="10"/>
<path d="M611.68 16.557C611.68 21.047 608 24.707 603.52 24.707C599.03 24.707 595.29 21.027 595.29 16.547C595.29 12.057 599.05 8.39697 603.54 8.39697C608.02 8.39697 611.68 12.067 611.68 16.557ZM610.22 85.167L596.6 85.157L596.66 28.777L610.28 28.787L610.22 85.167Z" stroke="#061922" stroke-miterlimit="10"/>
<path d="M649.94 42.1569C642.3 42.1469 636.22 48.307 636.21 55.947C636.2 63.587 642.27 69.667 649.91 69.677C653.68 69.677 656.91 68.307 659.86 65.547L670.44 76.697C665.46 81.667 657.91 85.057 649.9 85.057C633.79 85.037 620.82 71.9569 620.84 55.8469C620.86 39.7369 633.85 26.7669 649.96 26.7869C657.97 26.7969 664.59 29.7469 670.48 35.1869L659.88 46.3169C656.84 43.5469 653.71 42.1669 649.94 42.1569Z" stroke="#061922" stroke-miterlimit="10"/>
<path d="M686.17 85.097L674.35 77.827L707.51 26.367L740.57 77.887L728.74 85.137L724.42 78.117L690.49 78.087L686.17 85.097ZM707.49 50.457L698.83 64.477L716.12 64.4969L707.49 50.457Z" stroke="#061922" stroke-miterlimit="10"/>
<path d="M119.77 119.537L196.8 169.217C198.44 170.277 200.63 169.427 201.13 167.537L210.36 132.707C210.89 130.697 209.71 128.637 207.71 128.077L140.36 109.377C133.32 107.427 125.79 109.757 121.09 115.357L119.44 117.327C118.86 118.017 119.01 119.057 119.77 119.537Z" stroke="#061922" stroke-miterlimit="10"/>
<path d="M173.49 1.37695H206.97L97.63 127.627L76.09 153.287C66.47 164.747 52.27 171.367 37.3 171.367H2L111.34 45.117L134 19.277C143.96 7.89698 158.36 1.37695 173.49 1.37695Z" stroke="#061922" stroke-miterlimit="10"/>
<path d="M94.05 46.107L44.54 2.12694C42.78 0.556945 40.1 0.636968 38.43 2.30697L12.88 27.857C11.67 29.067 12.1 31.137 13.7 31.757L71.76 54.337C79.66 57.407 88.64 55.2069 94.22 48.8169C94.91 48.0169 94.84 46.817 94.05 46.107Z" stroke="#061922" stroke-miterlimit="10"/>
</svg>
